<?xml version="1.0" encoding="UTF-8"?>
<!DOCTYPE svg PUBLIC "-//W3C//DTD SVG 1.1//EN" "http://www.w3.org/Graphics/SVG/1.1/DTD/svg11.dtd">
<svg xmlns="http://www.w3.org/2000/svg" version="1.1" width="233px" height="146px" style="shape-rendering:geometricPrecision; text-rendering:geometricPrecision; image-rendering:optimizeQuality; fill-rule:evenodd; clip-rule:evenodd" xmlns:xlink="http://www.w3.org/1999/xlink">
<g><path style="opacity:1" fill="#000000" d="M 103.5,-0.5 C 106.167,-0.5 108.833,-0.5 111.5,-0.5C 123.134,1.05806 134.8,3.22473 146.5,6C 177.675,15.8402 205.175,32.0069 229,54.5C 229.941,56.7274 231.108,58.7274 232.5,60.5C 232.5,65.1667 232.5,69.8333 232.5,74.5C 225.846,90.8026 217.346,106.136 207,120.5C 195.468,134.177 180.968,142.51 163.5,145.5C 153.5,145.5 143.5,145.5 133.5,145.5C 96.0589,136.972 58.7255,127.472 21.5,117C 9.70759,112.714 2.37425,104.547 -0.5,92.5C -0.5,87.5 -0.5,82.5 -0.5,77.5C 3.24785,63.5499 10.9145,52.0499 22.5,43C 30.2224,36.9448 38.2224,31.2781 46.5,26C 54.2105,16.6331 63.8772,9.96643 75.5,6C 84.8035,3.11013 94.1368,0.943464 103.5,-0.5 Z M 178.5,26.5 C 193.422,34.5794 207.422,44.0794 220.5,55C 226.668,61.0753 228.168,68.2419 225,76.5C 217.366,95.7778 206.199,112.611 191.5,127C 178.778,135.892 164.612,140.392 149,140.5C 138.413,139.708 127.913,138.208 117.5,136C 85.036,127.801 52.7026,119.134 20.5,110C 10.5476,104.699 5.54757,96.3657 5.5,85C 6.0661,74.9618 9.5661,66.1284 16,58.5C 21.9037,51.9257 28.4037,46.0924 35.5,41C 37.2889,40.4795 38.9556,40.8129 40.5,42C 46.3863,48.552 53.3863,53.552 61.5,57C 76.1137,62.6467 90.6137,68.48 105,74.5C 124.926,71.1912 143.76,64.6912 161.5,55C 165.333,52.5 168.5,49.3333 171,45.5C 173.996,39.3409 176.496,33.0076 178.5,26.5 Z"/></g>
<g><path style="opacity:1" fill="#9f8775" d="M 101.5,5.5 C 123.56,4.57871 143.56,10.412 161.5,23C 169.451,28.9828 170.618,36.1494 165,44.5C 157.873,50.9842 149.707,55.8175 140.5,59C 129.854,63.2448 118.854,66.0781 107.5,67.5C 89.6947,62.506 72.3614,56.006 55.5,48C 48.7474,42.2373 47.7474,35.5706 52.5,28C 57.7554,24.7489 62.4221,20.7489 66.5,16C 77.6802,10.4606 89.3469,6.96056 101.5,5.5 Z"/></g>
<g><path style="opacity:1" fill="#0a0a09" d="M 106.5,19.5 C 108.256,20.5521 108.923,22.2188 108.5,24.5C 120.303,25.6335 120.303,26.3002 108.5,26.5C 107.869,30.8038 107.369,35.1371 107,39.5C 106.692,40.3081 106.192,40.9747 105.5,41.5C 105.359,37.0148 105.359,32.3481 105.5,27.5C 104.022,27.762 102.689,27.4287 101.5,26.5C 102.85,25.0499 104.516,24.3832 106.5,24.5C 106.5,22.8333 106.5,21.1667 106.5,19.5 Z"/></g>
<g><path style="opacity:1" fill="#070707" d="M 74.5,24.5 C 79.8437,24.334 85.1771,24.5006 90.5,25C 93.2039,27.6866 93.0372,30.1866 90,32.5C 89.5,32.1667 89,31.8333 88.5,31.5C 89.3094,29.9291 89.6427,28.2624 89.5,26.5C 84.57,26.1975 79.7367,26.5308 75,27.5C 73.2716,26.6477 73.105,25.6477 74.5,24.5 Z"/></g>
<g><path style="opacity:1" fill="#080807" d="M 127.5,27.5 C 132.599,27.1746 137.599,27.6746 142.5,29C 146.969,34.7092 146.136,39.5425 140,43.5C 139.5,43.1667 139,42.8333 138.5,42.5C 139.815,40.6841 141.315,39.0175 143,37.5C 143.896,34.975 143.396,32.8083 141.5,31C 136.584,29.8394 131.584,29.1728 126.5,29C 127.056,28.6174 127.389,28.1174 127.5,27.5 Z"/></g>
<g><path style="opacity:1" fill="#080807" d="M 113.5,32.5 C 115.604,32.2011 117.604,32.5344 119.5,33.5C 117.235,34.6474 114.902,34.8141 112.5,34C 113.056,33.6174 113.389,33.1174 113.5,32.5 Z"/></g>
<g><path style="opacity:1" fill="#030303" d="M 72.5,41.5 C 79.5121,41.9593 86.5121,42.626 93.5,43.5C 88.1977,44.6628 82.8643,44.8295 77.5,44C 75.256,43.9504 73.5893,43.1171 72.5,41.5 Z"/></g>
<g><path style="opacity:1" fill="#111110" d="M 112.5,43.5 C 115.502,42.269 118.169,42.9357 120.5,45.5C 117.667,46.117 115,45.4503 112.5,43.5 Z"/></g>
<g><path style="opacity:1" fill="#000000" d="M 50.5,66.5 C 54.2403,65.7415 55.907,67.2415 55.5,71C 55.5376,75.6028 53.7042,79.1028 50,81.5C 48.1147,81.1379 47.2814,79.9713 47.5,78C 48.5818,74.1723 49.5818,70.339 50.5,66.5 Z"/></g>
<g><path style="opacity:1" fill="#000000" d="M 75.5,68.5 C 77.1667,68.5 78.8333,68.5 80.5,68.5C 80.5101,74.2845 79.6767,79.9512 78,85.5C 77.1207,88.3463 75.4541,89.013 73,87.5C 72.6986,81.0322 73.5319,74.6989 75.5,68.5 Z"/></g>
<g><path style="opacity:1" fill="#000000" d="M 50.5,92.5 C 56.7982,93.7259 63.1316,94.8926 69.5,96C 70.5536,97.3876 70.7203,98.8876 70,100.5C 63.3614,101.561 56.8614,100.727 50.5,98C 49.2475,96.1722 49.2475,94.3388 50.5,92.5 Z"/></g>
</svg>
